<svg width="56" height="56" viewBox="0 0 56 56" fill="none" xmlns="http://www.w3.org/2000/svg">
<path d="M28.2655 32.6952C30.978 32.6952 33.1983 30.4858 33.1983 27.7624C33.1983 26.6905 32.8483 25.6952 32.2686 24.8858C31.3717 23.6499 29.917 22.8296 28.2764 22.8296C26.6358 22.8296 25.1811 23.639 24.2842 24.8858C23.7045 25.6952 23.3545 26.6905 23.3545 27.7624C23.3436 30.4858 25.553 32.6952 28.2655 32.6952Z" fill="#66D3FF"/>
<path d="M39.0281 21.7469V17.6125V17H38.4156L34.2812 17.0109L34.3031 21.7578L39.0281 21.7469Z" fill="#66D3FF"/>
<path d="M35.9219 27.7735C35.9219 31.9954 32.4875 35.4298 28.2656 35.4298C24.0438 35.4298 20.6094 31.9954 20.6094 27.7735C20.6094 26.7563 20.8172 25.7829 21.1781 24.897H17V36.3595C17 37.836 18.2031 39.0392 19.6797 39.0392H36.8516C38.3281 39.0392 39.5312 37.836 39.5312 36.3595V24.897H35.3531C35.725 25.7829 35.9219 26.7563 35.9219 27.7735Z" fill="#66D3FF"/>
<rect x="15" y="15" width="26" height="26" rx="4" stroke="#66D3FF" stroke-width="2"/>
<circle cx="28" cy="28" r="27" stroke="#66D3FF" stroke-width="2"/>
</svg>
