<svg width="56" height="56" viewBox="0 0 56 56" fill="none" xmlns="http://www.w3.org/2000/svg">
<path d="M41.2672 17.4156C40.1516 18.0719 38.9266 18.5531 37.6141 18.8156C36.5641 17.7 35.0656 17 33.4141 17C30.2422 17 27.6609 19.5813 27.6609 22.7531C27.6609 23.2016 27.7047 23.6391 27.8141 24.0656C23.0344 23.825 18.7906 21.5391 15.9578 18.05C15.4656 18.9031 15.1813 19.8875 15.1813 20.9484C15.1813 22.9391 16.1984 24.7 17.7406 25.7391C16.8 25.7063 15.9141 25.4438 15.1375 25.0172V25.0828C15.1375 27.8719 17.1172 30.2016 19.7531 30.7266C19.2719 30.8578 18.7578 30.9344 18.2328 30.9344C17.8609 30.9344 17.5 30.9016 17.15 30.8359C17.8828 33.1219 20.0047 34.7844 22.5203 34.8281C20.5516 36.3703 18.0688 37.2891 15.3781 37.2891C14.9188 37.2891 14.4594 37.2672 14 37.2125C16.5484 38.8422 19.5672 39.7938 22.8156 39.7938C33.4031 39.7938 39.1891 31.0219 39.1891 23.4203C39.1891 23.1688 39.1891 22.9172 39.1781 22.6766C40.3047 21.8563 41.2781 20.85 42.0438 19.6906C41.0156 20.15 39.9 20.4563 38.7406 20.5984C39.9328 19.8875 40.8406 18.7609 41.2672 17.4156Z" fill="#66D3FF"/>
<circle cx="28" cy="28" r="27" stroke="#66D3FF" stroke-width="2"/>
</svg>
