<svg width="56" height="56" viewBox="0 0 56 56" fill="none" xmlns="http://www.w3.org/2000/svg">
<path d="M55 27.9964C54.9982 13.0866 42.9116 1 28 1C13.0884 1 1 13.0884 1 28C1 41.0706 10.2886 51.9728 22.6234 54.4646V37.0923H16.5132H15.5132V36.0923V27.9963V26.9963H16.5132H22.6234V21.8856C22.5872 21.545 22.5692 21.1664 22.5692 20.7909C22.5692 14.7809 27.4421 9.90798 33.4521 9.90798C33.7247 9.90798 33.9922 9.91882 34.2537 9.93662C36.5296 9.97071 38.7337 10.1729 40.8857 10.5322L41.721 10.6717V11.5185V12V12.0196L41.7202 12.0392L41.47 18.4121L41.4323 19.3729H40.4708H36.9381H36.8687L36.7999 19.3633C36.6874 19.3476 36.5488 19.3374 36.406 19.3374C34.7299 19.3374 33.3692 20.69 33.358 22.3647L33.3738 22.7181L33.3589 22.7191L33.3702 26.9963H40.1384H41.3035L41.1269 28.1479L39.8852 36.2439L39.7551 37.0923H38.8968H33.3729V54.4549C45.786 51.8839 54.9983 41.0121 55 27.9964ZM55 27.9964L56 27.9963L55 27.9964Z" stroke="#66D3FF" stroke-width="2"/>
</svg>
